<svg xmlns="http://www.w3.org/2000/svg" viewBox="0 0 58.9 58.9"><g id="ab76c774-436d-4e0f-a8c7-eb8248e72800" data-name="app-icon-logo"><rect id="f636d0d3-a99a-4e8b-9797-5a7a5c0ec1cd" data-name="app-icon" width="58.9" height="58.9" rx="12.01" fill="#5b21b6"/><g id="aa5d0917-8a8b-4f95-8d4d-be4eb525e959" data-name="icon"><g id="a2dad217-5040-46d1-a9c5-d543c69f59c6" data-name="sash" opacity="0.33"><rect x="8.15" y="24.37" width="45.32" height="5" transform="translate(-9.98 29.65) rotate(-45)" fill="#fff"/></g><polygon id="b6307913-2140-46aa-9b59-4973f866c7e7" data-name="arrow-l" points="26.13 35.86 16.34 26.07 26.13 16.29 28.95 19.12 22 26.07 28.95 33.03 26.13 35.86" fill="#fff"/><polygon id="a76388d6-242d-4104-8adf-315ee42a1138" data-name="arrow-r" points="32.78 40.15 29.95 37.32 36.91 30.37 29.95 23.41 32.78 20.59 42.56 30.37 32.78 40.15" fill="#fff"/><path id="b0db9520-fa45-4bc8-b177-3b9c8b34ccb9" data-name="shield" d="M43.75,12a.44.44,0,0,1,.44.44V34.34a10.57,10.57,0,0,1-4.81,8.88l-7.87,5.13a4.61,4.61,0,0,1-5.13-.06l-7.17-5a10.6,10.6,0,0,1-4.58-8.73V12.46a.44.44,0,0,1,.44-.44H43.75m0-5H15.07a5.44,5.44,0,0,0-5.44,5.44V34.6a15.61,15.61,0,0,0,6.73,12.84l7.17,5a9.63,9.63,0,0,0,10.72.14l7.86-5.13a15.6,15.6,0,0,0,7.08-13.07V12.46A5.45,5.45,0,0,0,43.75,7Z" fill="#fff"/></g></g></svg>