<svg xmlns="http://www.w3.org/2000/svg" viewBox="0 0 305.91 58.9"><g id="b4c096b6-2cd5-4ee6-b10a-9069d5ff938e" data-name="app-icon-logo"><path d="M90.56,24c-1-2.5-3-3.44-5.45-3.54-2.07-.09-4.23.79-4.23,2.12,0,1.13,1.28,1.42,2.9,1.86l4.91,1.38c5,1.37,8.35,4.12,8.35,8.5a7.8,7.8,0,0,1-3.78,6.63,12.17,12.17,0,0,1-7,1.76c-3.88,0-7.22-.83-9.58-3.58a12,12,0,0,1-2.8-5.7l6-1.52a8.18,8.18,0,0,0,1.57,3.24,6.64,6.64,0,0,0,5,1.82A7.46,7.46,0,0,0,90,36.07a1.92,1.92,0,0,0,1-1.67c0-1.62-2-2-3.83-2.5-5.06-1.42-5.89-1.62-6.73-2A10.8,10.8,0,0,1,76.22,27a7.58,7.58,0,0,1-1.33-4.23,7.71,7.71,0,0,1,4.81-7.12,14.08,14.08,0,0,1,5.8-1A12.55,12.55,0,0,1,91.15,16a11.7,11.7,0,0,1,5.65,6.39Zm36,4.72a14.91,14.91,0,0,1-3.09,9.77,11.79,11.79,0,0,1-9.14,4.22,13,13,0,0,1-6.83-1.76V53.76h-6.73V15.44h5.9v1.67a12.23,12.23,0,0,1,7.32-2.4,12,12,0,0,1,9.48,4.22A15.71,15.71,0,0,1,126.58,28.71Zm-7.07,0a10.35,10.35,0,0,0-1.43-5.7c-1.13-1.72-2.84-2.36-5.06-2.36a5.64,5.64,0,0,0-4.47,1.87,9.61,9.61,0,0,0-1.86,6.19,9.55,9.55,0,0,0,1.86,6.19,6.17,6.17,0,0,0,4.72,1.86,5.64,5.64,0,0,0,4.91-2.36A10.32,10.32,0,0,0,119.51,28.71Zm12.59,9.57a14.5,14.5,0,0,1-3.24-9.57,14.76,14.76,0,0,1,3.24-9.58,13.31,13.31,0,0,1,10.17-4.42,13.07,13.07,0,0,1,10.17,4.42,14.26,14.26,0,0,1,3.29,9.58,14.34,14.34,0,0,1-3.29,9.57,13.07,13.07,0,0,1-10.17,4.42A13.24,13.24,0,0,1,132.1,38.28Zm15-15.12a6.45,6.45,0,0,0-9.72,0,9.14,9.14,0,0,0-1.48,5.55,9,9,0,0,0,1.48,5.5,6.36,6.36,0,0,0,9.72,0,9,9,0,0,0,1.52-5.5A9.16,9.16,0,0,0,147.13,23.16Zm30.13-7.67v6.19a12,12,0,0,0-5.11-.69,6.31,6.31,0,0,0-4.23,1.82,7.29,7.29,0,0,0-1.72,5V42h-6.72V15.44h5.89v3.64a8.21,8.21,0,0,1,2.85-2.95,9.9,9.9,0,0,1,4.62-1.37A10.09,10.09,0,0,1,177.26,15.49Zm12.21,14.84c0,2.06-.1,3.78.54,4.76a3.53,3.53,0,0,0,2.8,1.52,22.08,22.08,0,0,0,4.32-.19V42a21.6,21.6,0,0,1-7.76.19A7.21,7.21,0,0,1,184,38.82c-1.47-2.16-1.17-4.91-1.17-8.1V20.6h-4.52V15.44h4.52V8.08h6.68v7.36h7.66V20.6h-7.66ZM224.68,6.6V42h-5.89V40.35a12.48,12.48,0,0,1-7.66,2.35A11.79,11.79,0,0,1,202,38.48a14.91,14.91,0,0,1-3.09-9.77A15.71,15.71,0,0,1,202,18.93a12,12,0,0,1,9.48-4.22A12.57,12.57,0,0,1,218,16.53V6.6Zm-5.89,22.11a9.56,9.56,0,0,0-1.87-6.19,5.61,5.61,0,0,0-4.47-1.87c-2.21,0-3.93.64-5.06,2.36a10.44,10.44,0,0,0-1.42,5.7,10.32,10.32,0,0,0,1.33,5.69,5.63,5.63,0,0,0,4.91,2.36,6.16,6.16,0,0,0,4.71-1.86A9.5,9.5,0,0,0,218.79,28.71ZM237,34.21a5.94,5.94,0,0,0,4.86,2.26,5.83,5.83,0,0,0,3.78-1.18,5.56,5.56,0,0,0,1.72-2.16L254,35a12.28,12.28,0,0,1-4.61,5.55,13.72,13.72,0,0,1-7.17,2.11c-4,0-8.16-1.52-10.57-4.42a14.4,14.4,0,0,1-3.24-9.23,15.53,15.53,0,0,1,3.24-9.92,13.24,13.24,0,0,1,10.17-4.42,11.64,11.64,0,0,1,9.48,4.17c2.65,3.1,3.29,7.08,3,11.69H235.6A7.8,7.8,0,0,0,237,34.21ZM237,22.66a7.07,7.07,0,0,0-1.28,2.76h11.84a5.37,5.37,0,0,0-1.08-3,5.87,5.87,0,0,0-4.67-2A5.81,5.81,0,0,0,237,22.66Zm44.37-7.22L271.72,42h-6.63l-9.67-26.53h6.68l6.33,18.38,6.29-18.38ZM299.11,24c-1-2.5-3.05-3.44-5.45-3.54-2.07-.09-4.23.79-4.23,2.12,0,1.13,1.28,1.42,2.9,1.86l4.91,1.38c5,1.37,8.35,4.12,8.35,8.5a7.8,7.8,0,0,1-3.78,6.63,12.17,12.17,0,0,1-7,1.76c-3.88,0-7.22-.83-9.58-3.58a12,12,0,0,1-2.8-5.7l6-1.52A8,8,0,0,0,290,35.14,6.64,6.64,0,0,0,295,37a7.46,7.46,0,0,0,3.59-.89,1.92,1.92,0,0,0,1-1.67c0-1.62-2-2-3.83-2.5-5.06-1.42-5.89-1.62-6.73-2A10.8,10.8,0,0,1,284.77,27a7.58,7.58,0,0,1-1.33-4.23,7.71,7.71,0,0,1,4.81-7.12,14.08,14.08,0,0,1,5.8-1A12.55,12.55,0,0,1,299.7,16a11.7,11.7,0,0,1,5.65,6.39Z" fill="#1c0a3f"/><rect id="e0582027-9cc8-4d33-8f99-cab9b2dd1360" data-name="app-icon" width="58.9" height="58.9" rx="12.01" fill="#5b21b6"/><g id="a627cfa9-b261-4a85-9fd8-fe59d79bf2bd" data-name="icon"><g id="e0eeed2e-36c4-49d0-b4be-e7f82b39def7" data-name="sash" opacity="0.33"><rect x="8.15" y="24.37" width="45.32" height="5" transform="translate(-9.98 29.65) rotate(-45)" fill="#fff"/></g><polygon id="ba809c72-a71e-4ad7-82ea-25b0632d2121" data-name="arrow-l" points="26.13 35.86 16.34 26.07 26.13 16.29 28.95 19.12 22 26.07 28.95 33.03 26.13 35.86" fill="#fff"/><polygon id="a8f5d28e-af9b-48d8-be89-c81b5b4e5257" data-name="arrow-r" points="32.78 40.15 29.95 37.32 36.91 30.37 29.95 23.41 32.78 20.59 42.56 30.37 32.78 40.15" fill="#fff"/><path id="b0b78d56-4cf1-4b89-b91d-e822b3c14dfc" data-name="shield" d="M43.75,12a.44.44,0,0,1,.44.44V34.34a10.57,10.57,0,0,1-4.81,8.88l-7.87,5.13a4.61,4.61,0,0,1-5.13-.06l-7.17-5a10.6,10.6,0,0,1-4.58-8.73V12.46a.44.44,0,0,1,.44-.44H43.75m0-5H15.07a5.44,5.44,0,0,0-5.44,5.44V34.6a15.61,15.61,0,0,0,6.73,12.84l7.17,5a9.63,9.63,0,0,0,10.72.14l7.86-5.13a15.6,15.6,0,0,0,7.08-13.07V12.46A5.45,5.45,0,0,0,43.75,7Z" fill="#fff"/></g></g></svg>