<svg id="b724f1da-c487-44df-8ad0-3a82e8746f6d" data-name="logo" xmlns="http://www.w3.org/2000/svg" viewBox="0 0 39.56 47.08"><g id="ae37e5bc-7f2f-4af8-acd8-17ba7245c587" data-name="icon"><g id="e645d8c8-ed4d-4cf0-84d8-4c3b57039475" data-name="sash" opacity="0.33"><rect x="-1.48" y="17.34" width="45.32" height="5" transform="translate(-7.83 20.79) rotate(-45)" fill="currentColor"/></g><polygon id="e04e6b9d-6dd3-412a-a8ab-ba4fa30a8dc9" data-name="arrow-l" points="16.5 28.83 6.71 19.05 16.5 9.27 19.32 12.09 12.37 19.05 19.32 26 16.5 28.83" fill="currentColor"/><polygon id="bb11dd28-68df-471d-84ff-a4b4c9353960" data-name="arrow-r" points="23.15 33.13 20.32 30.3 27.28 23.34 20.32 16.39 23.15 13.56 32.93 23.34 23.15 33.13" fill="currentColor"/><path id="a63d198e-25df-4885-ba90-9dd6b798006f" data-name="shield" d="M34.12,5a.44.44,0,0,1,.44.44V27.31a10.59,10.59,0,0,1-4.81,8.89l-7.87,5.13a4.59,4.59,0,0,1-5.13-.07L9.58,36.31A10.61,10.61,0,0,1,5,27.58V5.44A.44.44,0,0,1,5.44,5H34.12m0-5H5.44A5.45,5.45,0,0,0,0,5.44V27.58A15.59,15.59,0,0,0,6.74,40.42l7.17,5a9.62,9.62,0,0,0,10.71.14l7.86-5.13a15.62,15.62,0,0,0,7.08-13.08V5.44A5.45,5.45,0,0,0,34.12,0Z" fill="currentColor"/></g></svg>
