<svg id="e62a9e65-a9c0-4805-8613-195dd4d325e8" data-name="logo" xmlns="http://www.w3.org/2000/svg" viewBox="0 0 201.63 47.08"><path d="M60.52,19.09a3.67,3.67,0,0,0-3.58-2.32c-1.35-.06-2.77.52-2.77,1.39s.84.93,1.9,1.23l3.22.9c3.29.9,5.48,2.71,5.48,5.57a5.12,5.12,0,0,1-2.48,4.36,8,8,0,0,1-4.58,1.16c-2.54,0-4.73-.55-6.28-2.36a7.88,7.88,0,0,1-1.84-3.74l3.93-1a5.18,5.18,0,0,0,1,2.13,4.36,4.36,0,0,0,3.25,1.19A4.81,4.81,0,0,0,60.16,27a1.24,1.24,0,0,0,.68-1.09c0-1.07-1.29-1.29-2.51-1.65C55,23.35,54.46,23.22,53.91,23a7.07,7.07,0,0,1-2.8-1.91,4.92,4.92,0,0,1-.87-2.77,5.05,5.05,0,0,1,3.15-4.67A9.25,9.25,0,0,1,57.2,13a8.29,8.29,0,0,1,3.71.87,7.68,7.68,0,0,1,3.7,4.19Zm23.64,3.1a9.8,9.8,0,0,1-2,6.41,7.73,7.73,0,0,1-6,2.78,8.57,8.57,0,0,1-4.48-1.16v8.41H67.24V13.49H71.1v1.09A8,8,0,0,1,75.91,13a7.91,7.91,0,0,1,6.22,2.78A10.29,10.29,0,0,1,84.16,22.19Zm-4.64,0a6.86,6.86,0,0,0-.94-3.74,3.62,3.62,0,0,0-3.32-1.55,3.68,3.68,0,0,0-2.93,1.23,6.26,6.26,0,0,0-1.23,4.06,6.21,6.21,0,0,0,1.23,4.06,4,4,0,0,0,3.09,1.23,3.72,3.72,0,0,0,3.23-1.55A6.86,6.86,0,0,0,79.52,22.19Zm8.26,6.29a9.57,9.57,0,0,1-2.13-6.29,9.69,9.69,0,0,1,2.13-6.29A8.74,8.74,0,0,1,94.45,13a8.58,8.58,0,0,1,6.67,2.9,9.34,9.34,0,0,1,2.16,6.29,9.42,9.42,0,0,1-2.16,6.29,8.58,8.58,0,0,1-6.67,2.9A8.68,8.68,0,0,1,87.78,28.48Zm9.86-9.93a4.23,4.23,0,0,0-6.38,0,6,6,0,0,0-1,3.64,5.93,5.93,0,0,0,1,3.61,4.18,4.18,0,0,0,6.38,0,6,6,0,0,0,1-3.61A6,6,0,0,0,97.64,18.55Zm19.77-5v4.06a7.77,7.77,0,0,0-3.35-.45,4.13,4.13,0,0,0-2.77,1.19,4.77,4.77,0,0,0-1.13,3.29v9.28h-4.42V13.49h3.87v2.38a5.4,5.4,0,0,1,1.87-1.93,6.71,6.71,0,0,1,5.93-.42Zm8,9.73c0,1.36-.07,2.49.35,3.13a2.34,2.34,0,0,0,1.84,1,14.43,14.43,0,0,0,2.83-.13v3.64a14.09,14.09,0,0,1-5.09.13,4.71,4.71,0,0,1-3.54-2.19c-1-1.42-.78-3.22-.78-5.32V16.87h-3V13.49h3V8.65h4.39v4.84h5v3.38h-5ZM148.54,7.68V30.89h-3.87V29.83a8.2,8.2,0,0,1-5,1.55,7.69,7.69,0,0,1-6-2.78,9.75,9.75,0,0,1-2-6.41,10.24,10.24,0,0,1,2-6.41A7.88,7.88,0,0,1,139.87,13a8.19,8.19,0,0,1,4.25,1.2V7.68Zm-3.87,14.51a6.26,6.26,0,0,0-1.23-4.06,3.68,3.68,0,0,0-2.93-1.23,3.62,3.62,0,0,0-3.32,1.55,6.86,6.86,0,0,0-.93,3.74,6.78,6.78,0,0,0,.87,3.74,3.69,3.69,0,0,0,3.22,1.55,4,4,0,0,0,3.09-1.23A6.21,6.21,0,0,0,144.67,22.19Zm11.94,3.61a3.88,3.88,0,0,0,3.19,1.48,3.75,3.75,0,0,0,3.61-2.19l4.38,1.26a8,8,0,0,1-3,3.64,9,9,0,0,1-4.7,1.39,9.11,9.11,0,0,1-6.94-2.9A9.52,9.52,0,0,1,151,22.42a10.25,10.25,0,0,1,2.12-6.52A8.72,8.72,0,0,1,159.8,13,7.63,7.63,0,0,1,166,15.74c1.74,2,2.16,4.64,1.93,7.67H155.7A5.13,5.13,0,0,0,156.61,25.8Zm0-7.58A4.65,4.65,0,0,0,155.8,20h7.77a3.59,3.59,0,0,0-.71-1.93,4.26,4.26,0,0,0-6.22.12Zm29.12-4.73-6.35,17.4h-4.35l-6.35-17.4h4.38l4.16,12,4.12-12Zm11.62,5.6a3.67,3.67,0,0,0-3.58-2.32c-1.35-.06-2.77.52-2.77,1.39s.84.93,1.9,1.23l3.22.9c3.29.9,5.48,2.71,5.48,5.57a5.12,5.12,0,0,1-2.48,4.36,8,8,0,0,1-4.57,1.16c-2.55,0-4.74-.55-6.29-2.36a7.88,7.88,0,0,1-1.84-3.74l3.93-1a5.18,5.18,0,0,0,1,2.13,4.36,4.36,0,0,0,3.25,1.19A4.81,4.81,0,0,0,197,27a1.24,1.24,0,0,0,.68-1.09c0-1.07-1.29-1.29-2.51-1.65-3.32-.93-3.87-1.06-4.42-1.28a7.07,7.07,0,0,1-2.8-1.91,4.92,4.92,0,0,1-.87-2.77,5,5,0,0,1,3.16-4.67,9.18,9.18,0,0,1,3.8-.65,8.29,8.29,0,0,1,3.71.87,7.68,7.68,0,0,1,3.7,4.19Z" fill="currentColor"/><g id="ac40cf0a-9df9-4b61-b9e0-e96e8363292f" data-name="icon"><g id="bd27b9eb-3e6d-47d8-80ac-089dfd8daa23" data-name="sash" opacity="0.33"><rect x="-1.48" y="17.34" width="45.32" height="5" transform="translate(-7.83 20.79) rotate(-45)" fill="currentColor"/></g><polygon id="baf1c14d-bc7b-4683-96be-03f7640df03f" data-name="arrow-l" points="16.5 28.83 6.71 19.05 16.5 9.27 19.32 12.09 12.37 19.05 19.32 26 16.5 28.83" fill="currentColor"/><polygon id="b6c110f0-ad8f-46a0-b393-ac6fc7bc61df" data-name="arrow-r" points="23.15 33.13 20.32 30.3 27.28 23.34 20.32 16.39 23.15 13.56 32.93 23.34 23.15 33.13" fill="currentColor"/><path id="ba2b1e7d-7f2b-4b9a-a350-2a69102e71e4" data-name="shield" d="M34.12,5a.44.44,0,0,1,.44.44V27.31a10.59,10.59,0,0,1-4.81,8.89l-7.87,5.13a4.59,4.59,0,0,1-5.13-.07L9.58,36.31A10.61,10.61,0,0,1,5,27.58V5.44A.44.44,0,0,1,5.44,5H34.12m0-5H5.44A5.45,5.45,0,0,0,0,5.44V27.58A15.59,15.59,0,0,0,6.74,40.42l7.17,5a9.62,9.62,0,0,0,10.71.14l7.86-5.13a15.62,15.62,0,0,0,7.08-13.08V5.44A5.45,5.45,0,0,0,34.12,0Z" fill="currentColor"/></g></svg>
