<svg id="e5e1930e-43e6-4268-9cf8-e8363989af3e" data-name="logo" xmlns="http://www.w3.org/2000/svg" viewBox="0 0 152.04 30.94"><path d="M10.93,11.41A3.65,3.65,0,0,0,7.35,9.09C6,9,4.58,9.61,4.58,10.48s.84.93,1.9,1.22l3.22.9c3.29.91,5.48,2.71,5.48,5.58a5.1,5.1,0,0,1-2.48,4.35,7.93,7.93,0,0,1-4.58,1.16c-2.54,0-4.74-.55-6.28-2.35A8,8,0,0,1,0,17.6l3.93-1a5.43,5.43,0,0,0,1,2.13,4.38,4.38,0,0,0,3.26,1.19,4.84,4.84,0,0,0,2.35-.58,1.27,1.27,0,0,0,.68-1.1c0-1.06-1.29-1.29-2.51-1.64-3.32-.93-3.87-1.06-4.42-1.29a7,7,0,0,1-2.8-1.9,4.93,4.93,0,0,1-.88-2.77A5.09,5.09,0,0,1,3.8,6a9.2,9.2,0,0,1,3.81-.64,8.22,8.22,0,0,1,3.7.87A7.63,7.63,0,0,1,15,10.38Zm23.64,3.1a9.82,9.82,0,0,1-2,6.41,7.75,7.75,0,0,1-6,2.77,8.45,8.45,0,0,1-4.48-1.16v8.41H17.64V5.8h3.87V6.9a8,8,0,0,1,4.8-1.58,7.91,7.91,0,0,1,6.23,2.77A10.34,10.34,0,0,1,34.57,14.51Zm-4.65,0A6.84,6.84,0,0,0,29,10.77a3.62,3.62,0,0,0-3.32-1.55,3.71,3.71,0,0,0-2.93,1.22,6.31,6.31,0,0,0-1.23,4.07,6.24,6.24,0,0,0,1.23,4.06,4,4,0,0,0,3.09,1.22,3.69,3.69,0,0,0,3.22-1.55A6.74,6.74,0,0,0,29.92,14.51Zm8.27,6.28a9.53,9.53,0,0,1-2.13-6.28,9.69,9.69,0,0,1,2.13-6.29,8.72,8.72,0,0,1,6.67-2.9,8.58,8.58,0,0,1,6.67,2.9,9.32,9.32,0,0,1,2.16,6.29,9.39,9.39,0,0,1-2.16,6.28,8.55,8.55,0,0,1-6.67,2.9A8.68,8.68,0,0,1,38.19,20.79Zm9.86-9.93a4.23,4.23,0,0,0-6.38,0,6,6,0,0,0-1,3.65,5.93,5.93,0,0,0,1,3.61,4.18,4.18,0,0,0,6.38,0,6,6,0,0,0,1-3.61A6,6,0,0,0,48.05,10.86Zm19.77-5V9.9a7.76,7.76,0,0,0-3.35-.46,4.09,4.09,0,0,0-2.77,1.2,4.71,4.71,0,0,0-1.13,3.28v9.29H56.15V5.8H60V8.19a5.42,5.42,0,0,1,1.87-1.94,6.57,6.57,0,0,1,3-.9A6.79,6.79,0,0,1,67.82,5.83Zm8,9.74a6.59,6.59,0,0,0,.36,3.13,2.37,2.37,0,0,0,1.84,1,14.47,14.47,0,0,0,2.83-.13v3.64a14.32,14.32,0,0,1-5.09.13,4.77,4.77,0,0,1-3.55-2.19c-1-1.42-.77-3.23-.77-5.32V9.19h-3V5.8h3V1h4.38V5.8h5V9.19h-5ZM99,0V23.21H95.08V22.14a8.16,8.16,0,0,1-5,1.55,7.75,7.75,0,0,1-6-2.77,9.82,9.82,0,0,1-2-6.41,10.34,10.34,0,0,1,2-6.42,7.9,7.9,0,0,1,6.22-2.77,8.31,8.31,0,0,1,4.26,1.19V0ZM95.08,14.51a6.31,6.31,0,0,0-1.23-4.07,3.71,3.71,0,0,0-2.93-1.22,3.62,3.62,0,0,0-3.32,1.55,6.83,6.83,0,0,0-.94,3.74,6.83,6.83,0,0,0,.87,3.73,3.72,3.72,0,0,0,3.23,1.55,4,4,0,0,0,3.09-1.22A6.24,6.24,0,0,0,95.08,14.51ZM107,18.12a3.89,3.89,0,0,0,3.19,1.48,3.79,3.79,0,0,0,3.61-2.19l4.38,1.25a8.12,8.12,0,0,1-3,3.65,9,9,0,0,1-4.71,1.38,9.1,9.1,0,0,1-6.93-2.9,9.5,9.5,0,0,1-2.12-6.06,10.24,10.24,0,0,1,2.12-6.51,8.72,8.72,0,0,1,6.68-2.9,7.63,7.63,0,0,1,6.22,2.74c1.74,2,2.16,4.64,1.93,7.67H106.11A5.13,5.13,0,0,0,107,18.12Zm0-7.58a4.59,4.59,0,0,0-.84,1.81H114a3.62,3.62,0,0,0-.71-1.94,3.86,3.86,0,0,0-3.06-1.29A3.81,3.81,0,0,0,107.05,10.54ZM136.17,5.8l-6.35,17.41h-4.36L119.11,5.8h4.39l4.16,12.06L131.78,5.8Zm11.62,5.61a3.65,3.65,0,0,0-3.58-2.32c-1.35-.06-2.77.52-2.77,1.39s.84.93,1.9,1.22l3.22.9c3.29.91,5.48,2.71,5.48,5.58a5.1,5.1,0,0,1-2.48,4.35A7.93,7.93,0,0,1,145,23.69c-2.54,0-4.73-.55-6.28-2.35a8,8,0,0,1-1.84-3.74l3.93-1a5.43,5.43,0,0,0,1,2.13,4.4,4.4,0,0,0,3.26,1.19,4.81,4.81,0,0,0,2.35-.58,1.27,1.27,0,0,0,.68-1.1c0-1.06-1.29-1.29-2.51-1.64-3.32-.93-3.87-1.06-4.42-1.29a7,7,0,0,1-2.8-1.9,4.92,4.92,0,0,1-.87-2.77A5.08,5.08,0,0,1,140.66,6a9.23,9.23,0,0,1,3.81-.64,8.22,8.22,0,0,1,3.7.87,7.63,7.63,0,0,1,3.71,4.19Z" fill="currentColor"/></svg>
