<?xml version="1.0" standalone="no"?>
<!DOCTYPE svg PUBLIC "-//W3C//DTD SVG 20010904//EN"
 "http://www.w3.org/TR/2001/REC-SVG-20010904/DTD/svg10.dtd">
<svg version="1.0" xmlns="http://www.w3.org/2000/svg"
 width="700.000000pt" height="700.000000pt" viewBox="0 0 700.000000 700.000000"
 preserveAspectRatio="xMidYMid meet">
<metadata>
Created by potrace 1.14, written by Peter Selinger 2001-2017
</metadata>
<g transform="translate(0.000000,700.000000) scale(0.100000,-0.100000)"
fill="#000000" stroke="none">
<path d="M1289 6996 c-2 -2 -24 -6 -49 -9 -83 -10 -197 -37 -283 -67 -85 -29
-269 -118 -275 -132 -2 -5 -8 -8 -13 -8 -17 0 -157 -108 -232 -179 -225 -215
-380 -518 -424 -831 -10 -69 -11 -4445 -1 -4520 42 -325 177 -599 408 -830
222 -224 527 -374 824 -408 80 -9 4446 -9 4511 0 28 4 60 9 71 12 12 2 39 7
60 10 64 11 238 73 326 117 150 76 298 187 412 311 62 67 206 270 206 290 0 5
11 25 23 46 25 39 101 242 91 242 -4 0 -2 6 4 13 6 6 10 14 10 17 0 5 12 72
19 105 2 11 7 43 11 70 9 65 9 4456 0 4515 -36 232 -104 413 -224 597 -64 100
-85 124 -195 234 -181 182 -439 323 -686 374 -43 9 -91 19 -108 23 -31 7
-4479 15 -4486 8z"/>
</g>
</svg>
